<svg data-v-423bf9ae="" xmlns="http://www.w3.org/2000/svg" viewBox="0 0 415 107" class="iconLeft"><!----><!----><!----><g data-v-423bf9ae="" id="03b7c3af-63f1-481f-b676-00a9bdf8647b" fill="#000000" transform="matrix(5.63811010912192,0,0,5.63811010912192,95.94170893820598,22.795354989605983)"><path d="M6.43 2.23L6.43 2.23L3.46 2.23C3.19 2.23 2.98 2.42 2.98 2.69L2.98 4.56C2.98 4.82 3.19 5.03 3.46 5.03L5.56 5.03C5.82 5.03 6.03 4.82 6.03 4.56C6.03 4.30 5.82 4.09 5.56 4.09L3.92 4.09L3.92 3.15L6.43 3.15C6.69 3.15 6.90 2.94 6.90 2.69C6.90 2.42 6.69 2.23 6.43 2.23ZM5.56 5.96L5.56 5.96L3.46 5.96C3.19 5.96 2.98 6.17 2.98 6.43L2.98 8.30C2.98 8.55 3.19 8.76 3.46 8.76L6.43 8.76C6.69 8.76 6.90 8.55 6.90 8.30C6.90 8.04 6.69 7.83 6.43 7.83L3.92 7.83L3.92 6.90L5.56 6.90C5.82 6.90 6.03 6.69 6.03 6.43C6.03 6.17 5.82 5.96 5.56 5.96ZM6.43 9.70L6.43 9.70L2.06 9.70L2.06 1.29L6.43 1.29C6.69 1.29 6.90 1.08 6.90 0.81C6.90 0.56 6.69 0.35 6.43 0.35L1.58 0.35C1.33 0.35 1.12 0.56 1.12 0.81L1.12 10.18C1.12 10.43 1.33 10.64 1.58 10.64L6.43 10.64C6.69 10.64 6.90 10.43 6.90 10.18C6.90 9.91 6.69 9.70 6.43 9.70ZM12.03 6.09C12.64 6.09 12.64 5.15 12.03 5.15L8.60 5.15C7.98 5.15 7.98 6.09 8.60 6.09ZM19.57 0.71L19.57 0.71C18.59 0.38 17.91 0.27 17.07 0.31C14.18 0.45 12.95 3.99 14.98 5.77C16.28 6.90 17.67 6.79 17.72 7.45C17.81 8.15 15.92 8.01 14.84 7.22C14.35 6.87 13.80 7.63 14.29 7.98C15.22 8.65 16.35 8.88 17.26 8.82C18.02 8.76 18.70 8.19 18.66 7.41C18.56 5.92 16.83 6.16 15.61 5.07C14.60 4.20 14.80 2.73 15.55 1.93C16.48 0.91 17.99 1.15 19.25 1.60C19.84 1.81 20.15 0.91 19.57 0.71ZM14.11 9.97L14.11 9.97C14.66 10.26 15.20 10.44 15.68 10.54C18.30 11.17 20.57 9.97 20.57 7.41C20.57 4.80 17.50 4.24 16.98 3.85C16.52 3.49 16.88 2.62 19.00 3.47C19.57 3.71 19.91 2.84 19.36 2.62C15.88 1.20 15.29 3.68 16.41 4.56C17.12 5.14 19.64 5.49 19.64 7.41C19.64 10.00 16.72 10.29 14.56 9.14C14.01 8.86 13.58 9.69 14.11 9.97ZM17.18 7.90L17.18 7.90L17.18 7.90L17.18 7.90ZM24.12 0.81L24.12 0.81L24.12 4.56C24.12 4.82 24.33 5.03 24.58 5.03L27.40 5.03C27.65 5.03 27.86 4.82 27.86 4.56L27.86 0.81C27.86 0.56 27.65 0.35 27.40 0.35C27.13 0.35 26.92 0.56 26.92 0.81L26.92 4.09L25.06 4.09L25.06 0.81C25.06 0.56 24.85 0.35 24.58 0.35C24.33 0.35 24.12 0.56 24.12 0.81ZM27.86 10.18L27.86 10.18L27.86 6.43C27.86 6.17 27.65 5.96 27.40 5.96L24.58 5.96C24.33 5.96 24.12 6.17 24.12 6.43L24.12 10.18C24.12 10.43 24.33 10.64 24.58 10.64C24.85 10.64 25.06 10.43 25.06 10.18L25.06 6.90L26.92 6.90L26.92 10.18C26.92 10.43 27.13 10.64 27.40 10.64C27.65 10.64 27.86 10.43 27.86 10.18ZM23.18 10.18L23.18 10.18L23.18 0.81C23.18 0.56 22.97 0.35 22.72 0.35C22.46 0.35 22.25 0.56 22.25 0.81L22.25 10.18C22.25 10.43 22.46 10.64 22.72 10.64C22.97 10.64 23.18 10.43 23.18 10.18ZM28.80 0.81L28.80 0.81L28.80 10.18C28.80 10.43 29.01 10.64 29.26 10.64C29.53 10.64 29.74 10.43 29.74 10.18L29.74 0.81C29.74 0.56 29.53 0.35 29.26 0.35C29.01 0.35 28.80 0.56 28.80 0.81ZM37.30 2.23L37.30 2.23L34.33 2.23C34.06 2.23 33.85 2.42 33.85 2.69L33.85 4.56C33.85 4.82 34.06 5.03 34.33 5.03L36.43 5.03C36.69 5.03 36.90 4.82 36.90 4.56C36.90 4.30 36.69 4.09 36.43 4.09L34.79 4.09L34.79 3.15L37.30 3.15C37.56 3.15 37.77 2.94 37.77 2.69C37.77 2.42 37.56 2.23 37.30 2.23ZM36.43 5.96L36.43 5.96L34.33 5.96C34.06 5.96 33.85 6.17 33.85 6.43L33.85 8.30C33.85 8.55 34.06 8.76 34.33 8.76L37.30 8.76C37.56 8.76 37.77 8.55 37.77 8.30C37.77 8.04 37.56 7.83 37.30 7.83L34.79 7.83L34.79 6.90L36.43 6.90C36.69 6.90 36.90 6.69 36.90 6.43C36.90 6.17 36.69 5.96 36.43 5.96ZM37.30 9.70L37.30 9.70L32.93 9.70L32.93 1.29L37.30 1.29C37.56 1.29 37.77 1.08 37.77 0.81C37.77 0.56 37.56 0.35 37.30 0.35L32.45 0.35C32.20 0.35 31.99 0.56 31.99 0.81L31.99 10.18C31.99 10.43 32.20 10.64 32.45 10.64L37.30 10.64C37.56 10.64 37.77 10.43 37.77 10.18C37.77 9.91 37.56 9.70 37.30 9.70ZM43.64 8.78L43.64 8.78C44.04 8.78 44.39 8.62 44.65 8.37C45.54 7.49 44.94 5.96 43.64 5.96L42 5.96C41.38 5.96 41.38 6.89 42 6.89L43.64 6.89C43.93 6.89 44.13 7.08 44.13 7.36C44.13 8.29 42.64 7.39 42.64 8.30C42.64 8.88 43.30 8.78 43.64 8.78ZM42 3.14L42 3.14L43.64 3.14C43.93 3.14 44.13 3.35 44.13 3.61C44.13 4.19 43.50 4.09 43.12 4.09C42.50 4.09 42.50 5.03 43.12 5.03C43.69 5.03 44.17 5.08 44.65 4.62C45.54 3.75 44.94 2.20 43.64 2.20L42 2.20C41.38 2.20 41.38 3.14 42 3.14ZM40.59 10.19L40.59 10.19L40.59 1.26L43.81 1.26C45.09 1.26 46.12 2.32 46.12 3.61C46.12 5.08 45.00 5.25 45.54 5.84C46.77 7.10 45.96 9.72 43.82 9.72L42 9.72C41.38 9.72 41.38 10.67 42 10.67L43.82 10.67C46.44 10.67 47.96 7.64 46.48 5.49C46.89 4.90 47.05 4.24 47.05 3.58C47.05 1.82 45.72 0.31 43.81 0.31L40.11 0.31C39.86 0.31 39.65 0.53 39.65 0.78L39.65 10.19C39.65 10.81 40.59 10.81 40.59 10.19ZM51.55 7.84L51.55 7.84L52.91 7.84C53.17 7.84 53.40 7.63 53.40 7.36C53.40 7.29 53.38 7.24 53.35 7.18L52.67 5.50C52.57 5.28 52.30 5.17 52.05 5.26C51.83 5.35 51.72 5.63 51.80 5.87L52.22 6.90L51.55 6.90C51.30 6.90 51.09 7.10 51.09 7.36C51.09 7.63 51.30 7.84 51.55 7.84ZM50.86 10.26L50.86 10.26L51.10 9.72L53.37 9.72L53.59 10.26C53.69 10.51 53.97 10.61 54.21 10.53C54.45 10.42 54.54 10.15 54.46 9.91L54.12 9.10C54.07 8.92 53.89 8.76 53.68 8.76L50.78 8.76L50.78 8.76C50.61 8.76 50.43 8.89 50.34 9.06L50.01 9.91C49.91 10.15 50.02 10.42 50.26 10.53C50.51 10.61 50.78 10.50 50.86 10.26ZM48.86 10.26L48.86 10.26L52.23 1.76L55.61 10.26C55.71 10.50 55.99 10.61 56.22 10.53C56.46 10.42 56.57 10.15 56.48 9.91L52.67 0.36C52.63 0.25 52.54 0.14 52.40 0.10C52.18 0 51.90 0.11 51.80 0.36L47.98 9.91C47.89 10.15 48.02 10.42 48.24 10.53C48.48 10.61 48.75 10.50 48.86 10.26Z"></path></g><!----><g data-v-423bf9ae="" id="b028dc90-83e9-43b2-a2af-75b73fad3386" transform="matrix(1.0868111504448785,0,0,1.0868111504448785,-13.255261890115804,-0.23894260335429607)" stroke="none" fill="#33D0F4"><g clip-rule="evenodd"><path d="M12.983 10.59l17.018 88.223-5.872-59.049 29.021-1.892-.054-9.883L64.549 1 53.622 18.977z"></path><path d="M59.389 54.548l5.16-53.541-8.74 39.716-19.612 1.045 1.57 20.462-7.766 36.583 12.057-39.899z"></path><path d="M62.8 67.182l.549-10.453-15.979 3.755-.032 11.797-17.337 26.532 21.68-27.616zM65.711 62.394l14.841-4.731 1.509-12.532-15.899 2.095zM72.07 44.502l10.988-1.417 1.581-10.278-8.079-.373L64.549 1l8.43 30.967z"></path><path d="M87.413 31.294l1.256-9.506-9.544-2.694L64.549 1l14.483 22.437-.422 7z"></path></g></g><!----></svg>