<svg data-v-423bf9ae="" xmlns="http://www.w3.org/2000/svg" viewBox="0 0 351 107" class="iconLeft"><!----><!----><!----><g data-v-423bf9ae="" id="b5ff3aaf-071a-4f52-ba6f-77f360a347e1" fill="black" transform="matrix(5.780346757080136,0,0,5.780346757080136,103.52806746177117,8.238835457854677)"><path d="M6.50 10.93L6.50 10.93L6.50 10.93Q6.50 11.91 5.87 12.39L5.87 12.39L5.87 12.39Q5.25 12.87 4.13 12.87L4.13 12.87L4.13 12.87Q2.34 12.87 1.49 11.68L1.49 11.68L1.49 11.68Q0.64 10.49 0.64 8.57L0.64 8.57L0.64 8.57Q0.64 8.26 0.67 7.67L0.67 7.67L-0.11 7.67L-0.11 7.67Q-0.22 7.67-0.22 7.59L-0.22 7.59L-0.22 7.59Q-0.22 7.35 0.01 7.01L0.01 7.01L0.01 7.01Q0.25 6.68 0.53 6.68L0.53 6.68L0.80 6.68L0.80 6.68Q0.98 5.67 1.39 4.90L1.39 4.90L1.39 4.90Q1.81 4.13 2.26 3.71L2.26 3.71L2.26 3.71Q2.72 3.29 3.26 3.04L3.26 3.04L3.26 3.04Q4.13 2.62 5.08 2.62L5.08 2.62L5.08 2.62Q6.03 2.62 6.27 2.93L6.27 2.93L6.27 2.93Q6.38 3.08 6.38 3.49L6.38 3.49L6.38 3.49Q6.38 3.91 6.29 3.91L6.29 3.91L6.29 3.91Q6.27 3.91 6.16 3.85L6.16 3.85L6.16 3.85Q5.80 3.68 5.25 3.68L5.25 3.68L5.25 3.68Q4.06 3.68 3.40 4.52L3.40 4.52L3.40 4.52Q2.73 5.36 2.51 6.68L2.51 6.68L2.51 6.68Q3.57 6.66 5.39 6.66L5.39 6.66L5.39 6.66Q5.53 6.66 5.53 6.76L5.53 6.76L5.53 6.76Q5.53 6.99 5.31 7.33L5.31 7.33L5.31 7.33Q5.08 7.67 4.80 7.67L4.80 7.67L2.39 7.67L2.39 7.67Q2.38 7.84 2.38 8.41L2.38 8.41L2.38 8.41Q2.38 8.97 2.58 9.60L2.58 9.60L2.58 9.60Q2.79 10.22 3.34 10.65L3.34 10.65L3.34 10.65Q3.89 11.09 4.77 11.09L4.77 11.09L4.77 11.09Q5.66 11.09 6.26 10.70L6.26 10.70L6.26 10.70Q6.33 10.64 6.38 10.64L6.38 10.64L6.38 10.64Q6.50 10.64 6.50 10.93ZM7.85 8.75L7.85 8.75L7.85 8.75Q7.85 8.75 12.64 8.71L12.64 8.71L12.64 8.71Q12.82 8.71 12.82 8.86L12.82 8.86L12.82 8.86Q12.82 9.56 12.32 9.56L12.32 9.56L7.49 9.56L7.49 9.56Q7.31 9.56 7.31 9.28L7.31 9.28L7.31 9.28Q7.31 8.75 7.85 8.75ZM18.26 4.91L18.26 4.91L18.31 4.48L18.31 4.48Q18.31 3.84 17.81 3.65L17.81 3.65L17.81 3.65Q17.42 3.53 17.21 3.53L17.21 3.53L17.19 3.53L17.19 3.53Q16.77 3.53 16.46 3.66L16.46 3.66L16.46 3.66Q16.16 3.79 16.02 3.99L16.02 3.99L16.02 3.99Q15.72 4.40 15.68 4.84L15.68 4.84L15.68 4.84Q15.68 5.38 16.16 5.76L16.16 5.76L16.16 5.76Q16.63 6.15 17.31 6.43L17.31 6.43L17.31 6.43Q17.99 6.72 18.67 7.06L18.67 7.06L18.67 7.06Q19.35 7.39 19.82 8.02L19.82 8.02L19.82 8.02Q20.30 8.65 20.30 9.53L20.30 9.53L20.30 9.53Q20.30 11.26 19.21 12.11L19.21 12.11L19.21 12.11Q18.13 12.96 16.75 12.96L16.75 12.96L16.75 12.96Q15.37 12.96 14.47 12.34L14.47 12.34L14.47 12.34Q13.57 11.72 13.57 10.67L13.57 10.67L13.57 10.65L13.57 10.65Q13.57 10.14 13.73 9.75L13.73 9.75L13.73 9.75Q13.89 9.37 14.11 9.18L14.11 9.18L14.11 9.18Q14.57 8.81 14.95 8.78L14.95 8.78L15.12 8.76L15.12 8.76Q15.51 8.76 15.83 8.95L15.83 8.95L15.83 8.95Q16.16 9.14 16.16 9.48L16.16 9.48L16.16 9.48Q16.16 9.65 15.97 9.76L15.97 9.76L15.97 9.76Q15.79 9.87 15.66 10.09L15.66 10.09L15.66 10.09Q15.53 10.32 15.51 10.47L15.51 10.47L15.48 10.63L15.48 10.63Q15.48 11.48 16.27 11.76L16.27 11.76L16.27 11.76Q16.55 11.86 16.72 11.86L16.72 11.86L16.72 11.86Q17.49 11.86 17.95 11.40L17.95 11.40L17.95 11.40Q18.42 10.93 18.42 10.22L18.42 10.22L18.42 10.22Q18.42 9.37 17.70 8.83L17.70 8.83L17.70 8.83Q17.15 8.44 16.51 8.18L16.51 8.18L16.51 8.18Q15.88 7.91 15.65 7.80L15.65 7.80L15.65 7.80Q15.43 7.69 15.18 7.53L15.18 7.53L15.18 7.53Q14.92 7.38 14.62 7.10L14.62 7.10L14.62 7.10Q13.94 6.51 13.94 5.51L13.94 5.51L13.94 5.51Q13.94 4.51 14.49 3.82L14.49 3.82L14.49 3.82Q15.47 2.58 17.43 2.58L17.43 2.58L17.43 2.58Q18.47 2.58 19.18 2.97L19.18 2.97L19.18 2.97Q19.89 3.37 19.89 4.07L19.89 4.07L19.89 4.07Q19.89 4.58 19.61 4.91L19.61 4.91L19.61 4.91Q19.32 5.25 18.87 5.25L18.87 5.25L18.87 5.25Q18.66 5.25 18.46 5.17L18.46 5.17L18.46 5.17Q18.26 5.08 18.26 4.91ZM22.75 5.15L22.75 5.15L22.74 6.51L22.74 6.51Q22.74 6.59 22.79 6.59L22.79 6.59L22.79 6.59Q22.85 6.59 22.90 6.55L22.90 6.55L22.90 6.55Q23.25 6.31 24.01 6.31L24.01 6.31L24.01 6.31Q25.28 6.31 25.77 7.18L25.77 7.18L25.77 7.18Q25.96 7.50 25.96 8.04L25.96 8.04L25.96 8.04Q25.96 8.57 25.89 9.51L25.89 9.51L25.89 9.51Q25.83 10.44 25.83 10.84L25.83 10.84L25.83 10.84Q25.83 12.21 26.22 12.66L26.22 12.66L26.22 12.66Q26.29 12.73 26.29 12.80L26.29 12.80L26.29 12.80Q26.29 12.94 25.69 12.94L25.69 12.94L25.69 12.94Q24.07 12.94 24.07 11.42L24.07 11.42L24.07 11.42Q24.07 10.84 24.35 9.77L24.35 9.77L24.35 9.77Q24.63 8.71 24.63 8.20L24.63 8.20L24.63 8.20Q24.63 7.70 24.39 7.43L24.39 7.43L24.39 7.43Q24.15 7.15 23.73 7.15L23.73 7.15L23.73 7.15Q23.31 7.15 23.07 7.34L23.07 7.34L23.07 7.34Q22.82 7.52 22.76 7.71L22.76 7.71L22.72 7.90L22.72 7.90Q22.71 8.16 22.71 9.59L22.71 9.59L22.71 9.59Q22.71 11.02 22.78 11.45L22.78 11.45L22.78 11.45Q22.85 11.87 22.85 11.93L22.85 11.93L22.85 11.93Q22.85 12.33 22.30 12.65L22.30 12.65L22.30 12.65Q21.76 12.96 21.22 12.96L21.22 12.96L21.22 12.96Q21.03 12.96 21.03 12.74L21.03 12.74L21.06 12.47L21.06 12.47Q21.36 10.12 21.36 7.38L21.36 7.38L21.36 7.38Q21.36 6.31 21.28 5.22L21.28 5.22L21.27 4.91L21.27 4.91Q21.24 4.52 21.11 4.24L21.11 4.24L21.11 4.24Q20.97 3.96 20.86 3.88L20.86 3.88L20.73 3.81L20.73 3.81Q20.64 3.75 20.64 3.68L20.64 3.68L20.64 3.68Q20.64 3.49 21.29 3.20L21.29 3.20L21.29 3.20Q21.95 2.91 22.31 2.91L22.31 2.91L22.31 2.91Q22.67 2.91 22.69 3.07L22.69 3.07L22.69 3.07Q22.75 3.78 22.75 5.15ZM28.04 9.11L28.04 9.11L28.06 9.46L28.06 9.46Q28.06 9.55 28.17 9.55L28.17 9.55L28.17 9.55Q28.62 9.51 28.95 9.32L28.95 9.32L28.95 9.32Q29.29 9.13 29.46 8.89L29.46 8.89L29.46 8.89Q29.79 8.37 29.82 7.99L29.82 7.99L29.83 7.83L29.83 7.83Q29.83 7.07 29.23 7.07L29.23 7.07L29.23 7.07Q28.78 7.07 28.50 7.46L28.50 7.46L28.50 7.46Q28.04 8.08 28.04 9.11ZM31.09 10.98L31.09 10.98L31.09 10.98Q31.09 11.51 30.88 11.91L30.88 11.91L30.88 11.91Q30.66 12.31 30.39 12.49L30.39 12.49L30.39 12.49Q30.11 12.68 29.75 12.80L29.75 12.80L29.75 12.80Q29.29 12.94 28.87 12.94L28.87 12.94L28.87 12.94Q27.69 12.94 27.13 12.05L27.13 12.05L27.13 12.05Q26.57 11.17 26.57 9.81L26.57 9.81L26.57 9.81Q26.57 8.44 27.27 7.38L27.27 7.38L27.27 7.38Q27.96 6.31 29.34 6.31L29.34 6.31L29.34 6.31Q30.60 6.31 31.05 7.20L31.05 7.20L31.05 7.20Q31.23 7.53 31.23 7.83L31.23 7.83L31.23 7.83Q31.23 8.13 31.21 8.31L31.21 8.31L31.21 8.31Q31.18 8.48 31.01 8.83L31.01 8.83L31.01 8.83Q30.84 9.18 30.56 9.46L30.56 9.46L30.56 9.46Q30.28 9.74 29.68 10.00L29.68 10.00L29.68 10.00Q29.08 10.25 28.27 10.33L28.27 10.33L28.27 10.33Q28.15 10.33 28.15 10.43L28.15 10.43L28.15 10.43Q28.15 10.56 28.25 10.80L28.25 10.80L28.25 10.80Q28.34 11.05 28.45 11.21L28.45 11.21L28.45 11.21Q28.76 11.61 29.36 11.61L29.36 11.61L29.36 11.61Q29.96 11.61 30.38 11.21L30.38 11.21L30.38 11.21Q30.60 11.00 30.74 10.70L30.74 10.70L30.74 10.70Q30.80 10.58 30.89 10.58L30.89 10.58L30.89 10.58Q30.98 10.58 31.04 10.74L31.04 10.74L31.04 10.74Q31.09 10.89 31.09 10.98ZM34.55 7.84L34.55 7.84L34.23 7.92L34.23 7.92Q33.98 7.92 33.98 7.46L33.98 7.46L33.98 7.46Q33.98 6.99 34.32 6.70L34.32 6.70L34.32 6.70Q34.66 6.41 35.20 6.41L35.20 6.41L35.20 6.41Q35.49 6.41 35.83 6.59L35.83 6.59L35.83 6.59Q36.16 6.76 36.39 7.02L36.39 7.02L36.39 7.02Q36.61 7.28 36.79 7.83L36.79 7.83L36.79 7.83Q36.96 8.39 36.96 9.13L36.96 9.13L36.96 9.13Q36.96 10.84 36.04 11.90L36.04 11.90L36.04 11.90Q35.13 12.96 33.39 12.96L33.39 12.96L33.39 12.96Q32.89 12.96 32.40 12.87L32.40 12.87L32.26 12.84L32.26 12.84Q32.07 12.78 32.05 12.64L32.05 12.64L32.05 12.64Q32.00 12.35 32.00 11.26L32.00 11.26L32.09 6.72L32.09 6.72Q32.09 5.67 32.03 5.11L32.03 5.11L32.00 4.91L32.00 4.91Q31.98 4.52 31.84 4.24L31.84 4.24L31.84 4.24Q31.71 3.96 31.58 3.88L31.58 3.88L31.47 3.81L31.47 3.81Q31.37 3.75 31.37 3.68L31.37 3.68L31.37 3.68Q31.37 3.47 32.07 3.19L32.07 3.19L32.07 3.19Q32.77 2.90 33.10 2.90L33.10 2.90L33.10 2.90Q33.42 2.90 33.43 3.07L33.43 3.07L33.43 3.07Q33.53 3.92 33.53 5.50L33.53 5.50L33.46 8.86L33.46 8.86Q33.46 11.06 33.59 11.90L33.59 11.90L33.59 11.90Q33.60 12.10 34.03 12.10L34.03 12.10L34.03 12.10Q34.45 12.10 34.76 11.86L34.76 11.86L34.76 11.86Q35.07 11.62 35.22 11.23L35.22 11.23L35.22 11.23Q35.50 10.51 35.50 9.65L35.50 9.65L35.50 9.65Q35.50 9.24 35.39 8.76L35.39 8.76L35.39 8.76Q35.20 7.84 34.55 7.84ZM42.27 8.47L42.27 8.47L42.24 10.26L42.24 10.26Q42.24 12.12 42.64 12.50L42.64 12.50L42.64 12.50Q42.70 12.56 42.70 12.63L42.70 12.63L42.70 12.63Q42.70 12.84 41.80 12.84L41.80 12.84L41.80 12.84Q40.89 12.84 40.84 12.31L40.84 12.31L40.84 12.31Q40.82 12.18 40.82 11.79L40.82 11.79L40.88 9.55L40.88 9.55Q40.88 9.45 40.77 9.45L40.77 9.45L40.77 9.45Q40.10 9.45 39.51 9.83L39.51 9.83L39.51 9.83Q38.92 10.21 38.92 10.79L38.92 10.79L38.92 10.79Q38.92 11.10 39.09 11.31L39.09 11.31L39.09 11.31Q39.26 11.52 39.50 11.52L39.50 11.52L39.50 11.52Q39.75 11.52 39.91 11.42L39.91 11.42L39.91 11.42Q40.07 11.33 40.10 11.31L40.10 11.31L40.10 11.31Q40.33 11.34 40.33 11.81L40.33 11.81L40.33 11.81Q40.33 12.28 39.90 12.56L39.90 12.56L39.90 12.56Q39.47 12.85 38.99 12.85L38.99 12.85L38.99 12.85Q38.51 12.85 38.17 12.68L38.17 12.68L38.17 12.68Q37.83 12.52 37.67 12.31L37.67 12.31L37.67 12.31Q37.52 12.10 37.42 11.83L37.42 11.83L37.42 11.83Q37.32 11.51 37.32 11.27L37.32 11.27L37.32 11.27Q37.32 10.29 37.94 9.70L37.94 9.70L37.94 9.70Q38.56 9.11 39.52 8.86L39.52 8.86L39.52 8.86Q40.80 8.61 40.85 8.40L40.85 8.40L40.85 8.40Q40.89 8.25 40.89 7.88L40.89 7.88L40.89 7.88Q40.89 7.14 40.14 7.14L40.14 7.14L40.14 7.14Q39.82 7.14 39.56 7.34L39.56 7.34L39.56 7.34Q39.31 7.55 39.31 7.85L39.31 7.85L39.40 8.19L39.40 8.19Q39.37 8.43 38.89 8.47L38.89 8.47L38.74 8.48L38.74 8.48Q38.32 8.48 38.07 8.27L38.07 8.27L38.07 8.27Q37.83 8.06 37.83 7.71L37.83 7.71L37.83 7.71Q37.83 7.49 37.98 7.22L37.98 7.22L37.98 7.22Q38.12 6.94 38.35 6.78L38.35 6.78L38.35 6.78Q38.57 6.61 39.04 6.47L39.04 6.47L39.04 6.47Q39.51 6.34 39.94 6.34L39.94 6.34L39.94 6.34Q40.38 6.34 40.61 6.37L40.61 6.37L40.61 6.37Q40.85 6.40 41.27 6.50L41.27 6.50L41.27 6.50Q41.68 6.61 41.95 6.90L41.95 6.90L41.95 6.90Q42.22 7.20 42.25 7.52L42.25 7.52L42.25 7.52Q42.27 7.85 42.27 8.47Z"></path></g><!----><g data-v-423bf9ae="" id="d5d6359c-5573-4301-9009-ce6be2a78ccb" transform="matrix(1.0868111504448785,0,0,1.0868111504448785,-13.255261890115804,-0.23894260335429607)" stroke="none" fill="black"><g clip-rule="evenodd"><path d="M12.983 10.59l17.018 88.223-5.872-59.049 29.021-1.892-.054-9.883L64.549 1 53.622 18.977z"></path><path d="M59.389 54.548l5.16-53.541-8.74 39.716-19.612 1.045 1.57 20.462-7.766 36.583 12.057-39.899z"></path><path d="M62.8 67.182l.549-10.453-15.979 3.755-.032 11.797-17.337 26.532 21.68-27.616zM65.711 62.394l14.841-4.731 1.509-12.532-15.899 2.095zM72.07 44.502l10.988-1.417 1.581-10.278-8.079-.373L64.549 1l8.43 30.967z"></path><path d="M87.413 31.294l1.256-9.506-9.544-2.694L64.549 1l14.483 22.437-.422 7z"></path></g></g><!----></svg>